<svg width="71" height="58" viewBox="0 0 71 58" fill="none" xmlns="http://www.w3.org/2000/svg">
<path d="M15.951 56.4009C24.1554 56.4009 30.8063 53.4356 30.8063 49.7776C30.8063 46.1197 24.1554 43.1543 15.951 43.1543C7.74665 43.1543 1.0957 46.1197 1.0957 49.7776C1.0957 53.4356 7.74665 56.4009 15.951 56.4009Z" fill="#00FFF9" fill-opacity="0.11"/>
<path d="M15.951 56.4966C24.2082 56.4966 30.902 53.4884 30.902 49.7776C30.902 46.0668 24.2082 43.0586 15.951 43.0586C7.69379 43.0586 1 46.0668 1 49.7776C1 53.4884 7.69379 56.4966 15.951 56.4966Z" stroke="#00FFF9" stroke-width="0.191397" stroke-linejoin="round"/>
<path d="M15.9509 50.7067C22.6812 50.7067 28.1372 48.2876 28.1372 45.3035C28.1372 42.3195 22.6812 39.9004 15.9509 39.9004C9.22063 39.9004 3.76465 42.3195 3.76465 45.3035C3.76465 48.2876 9.22063 50.7067 15.9509 50.7067Z" fill="#00FFF9" fill-opacity="0.11"/>
<path d="M15.9509 50.8024C22.7341 50.8024 28.2329 48.3405 28.2329 45.3035C28.2329 42.2666 22.7341 39.8047 15.9509 39.8047C9.16777 39.8047 3.66895 42.2666 3.66895 45.3035C3.66895 48.3405 9.16777 50.8024 15.9509 50.8024Z" stroke="#00FFF9" stroke-width="0.191397" stroke-linejoin="round"/>
<g opacity="0.251">
<path d="M15.9512 46.2916C21.5277 46.2916 26.0483 44.2885 26.0483 41.8177C26.0483 39.3468 21.5277 37.3438 15.9512 37.3438C10.3747 37.3438 5.854 39.3468 5.854 41.8177C5.854 44.2885 10.3747 46.2916 15.9512 46.2916Z" fill="#00FFF9" fill-opacity="0.11"/>
<path d="M15.9512 46.3873C21.5805 46.3873 26.144 44.3414 26.144 41.8177C26.144 39.2939 21.5805 37.248 15.9512 37.248C10.3218 37.248 5.7583 39.2939 5.7583 41.8177C5.7583 44.3414 10.3218 46.3873 15.9512 46.3873Z" stroke="#00FFF9" stroke-width="0.191397" stroke-linejoin="round"/>
</g>
<path d="M15.951 55.356C24.1554 55.356 30.8063 52.3906 30.8063 48.7327C30.8063 45.0747 24.1554 42.1094 15.951 42.1094C7.74665 42.1094 1.0957 45.0747 1.0957 48.7327C1.0957 52.3906 7.74665 55.356 15.951 55.356Z" fill="#00FFF9" fill-opacity="0.11"/>
<path d="M15.951 55.4029C24.1818 55.4029 30.8542 52.4161 30.8542 48.7317C30.8542 45.0473 24.1818 42.0605 15.951 42.0605C7.72022 42.0605 1.04785 45.0473 1.04785 48.7317C1.04785 52.4161 7.72022 55.4029 15.951 55.4029Z" stroke="#00FFF9" stroke-width="0.0956987" stroke-linejoin="round"/>
<path d="M15.9512 55.5696C23.4394 55.5696 29.5098 52.8472 29.5098 49.4889C29.5098 46.1306 23.4394 43.4082 15.9512 43.4082C8.46296 43.4082 2.39258 46.1306 2.39258 49.4889C2.39258 52.8472 8.46296 55.5696 15.9512 55.5696Z" stroke="#00FFF9" stroke-width="0.191397" stroke-linejoin="round"/>
<path opacity="0.52" d="M15.9512 43.5039C23.3869 43.5039 29.414 46.1835 29.414 49.4889C29.414 52.7943 23.3869 55.4739 15.9512 55.4739C8.51538 55.4739 2.48828 52.7943 2.48828 49.4889C2.48828 46.1835 8.51538 43.5039 15.9512 43.5039Z" fill="url(#paint0_linear_961_55294)"/>
<path d="M15.7728 53.6127V53.1554H16.3604V53.6127H15.7728ZM17.7311 53.1075L18.312 53.0704L18.5339 53.5256L17.9531 53.5626L17.7311 53.1075ZM13.5999 53.5256L13.8218 53.0704L14.4027 53.1075L14.1808 53.5626L13.5999 53.5256ZM19.6397 52.9418L20.194 52.8689L20.6311 53.303L20.0768 53.376L19.6397 52.9418ZM11.5028 53.303L11.9398 52.8689L12.4941 52.9418L12.0571 53.376L11.5028 53.303ZM21.4398 52.6588L21.9506 52.5522L22.5896 52.9524L22.0787 53.0591L21.4398 52.6588ZM9.54447 52.9524L10.1835 52.5522L10.6942 52.6588L10.0552 53.059L9.54447 52.9524ZM23.0763 52.2672L23.5282 52.1302L24.3495 52.4842L23.8978 52.6213L23.0763 52.2672ZM7.78363 52.4842L8.6051 52.1301L9.05689 52.2671L8.23541 52.6212L7.78363 52.4842ZM24.5 51.7788L24.8791 51.6154L25.8581 51.9121L25.479 52.0754L24.5 51.7788ZM6.27513 51.9127L7.25413 51.6161L7.63328 51.7794L6.65419 52.0761L6.27513 51.9127ZM25.6674 51.2086L25.9624 51.024L27.0692 51.255L26.7743 51.4397L25.6674 51.2086ZM5.06348 51.255L6.17035 51.024L6.46529 51.2086L5.35852 51.4397L5.06348 51.255ZM26.5429 50.5735L26.7446 50.3731L27.9455 50.5311L27.7438 50.7315L26.5429 50.5735ZM4.1867 50.5311L5.38772 50.3731L5.58945 50.5735L4.38843 50.7315L4.1867 50.5311ZM27.1003 49.8931L27.2028 49.6831L28.4614 49.7632L28.3589 49.9733L27.1003 49.8931ZM3.67097 49.7632L4.9296 49.6831L5.03201 49.8931L3.77337 49.9733L3.67097 49.7632ZM27.3229 49.1881V48.9747H28.6005V49.1881H27.3229ZM3.53125 49.1881V48.9747H4.80884V49.1881H3.53125ZM27.1003 48.2694L28.3589 48.1891L28.4614 48.3992L27.2028 48.4795L27.1003 48.2694ZM3.67097 48.3992L3.77337 48.1891L5.03201 48.2694L4.9296 48.4795L3.67097 48.3992ZM26.5429 47.5889L27.7439 47.4309L27.9456 47.6313L26.7447 47.7893L26.5429 47.5889ZM4.1868 47.6313L4.38852 47.4309L5.58954 47.5889L5.38782 47.7893L4.1868 47.6313ZM25.667 46.9538L26.7739 46.7227L27.0688 46.9074L25.962 47.1384L25.667 46.9538ZM5.06311 46.9074L5.35815 46.7227L6.4649 46.9538L6.16995 47.1384L5.06311 46.9074ZM24.4995 46.3833L25.4785 46.0866L25.8577 46.25L24.8787 46.5466L24.4995 46.3833ZM6.27464 46.2493L6.65372 46.0859L7.63281 46.3826L7.25364 46.546L6.27464 46.2493ZM23.0756 45.8944L23.8971 45.5404L24.3489 45.6774L23.5275 46.0315L23.0756 45.8944ZM7.78295 45.6775L8.23485 45.5405L9.05633 45.8945L8.60454 46.0316L7.78295 45.6775ZM21.4392 45.5027L22.078 45.1025L22.5889 45.2092L21.9499 45.6094L21.4392 45.5027ZM9.54382 45.2091L10.0546 45.1024L10.6935 45.5026L10.1828 45.6093L9.54382 45.2091ZM19.6393 45.2197L20.0763 44.7855L20.6306 44.8584L20.1935 45.2926L19.6393 45.2197ZM11.5023 44.8584L12.0566 44.7855L12.4936 45.2197L11.9393 45.2926L11.5023 44.8584ZM17.7306 45.054L17.9526 44.5989L18.5335 44.636L18.3115 45.091L17.7306 45.054ZM13.5994 44.636L14.1803 44.5989L14.4023 45.054L13.8214 45.091L13.5994 44.636ZM15.7724 45.0063V44.5488H16.3599V45.0063H15.7724Z" fill="#679E90" fill-opacity="0.25"/>
<path d="M15.7728 53.6127V53.1554H16.3604V53.6127H15.7728ZM17.7311 53.1075L18.312 53.0704L18.5339 53.5256L17.9531 53.5626L17.7311 53.1075ZM13.5999 53.5256L13.8218 53.0704L14.4027 53.1075L14.1808 53.5626L13.5999 53.5256ZM19.6397 52.9418L20.194 52.8689L20.6311 53.303L20.0768 53.376L19.6397 52.9418ZM11.5028 53.303L11.9398 52.8689L12.4941 52.9418L12.0571 53.376L11.5028 53.303ZM21.4398 52.6588L21.9506 52.5522L22.5896 52.9524L22.0787 53.0591L21.4398 52.6588ZM9.54447 52.9524L10.1835 52.5522L10.6942 52.6588L10.0552 53.059L9.54447 52.9524ZM23.0763 52.2672L23.5282 52.1302L24.3495 52.4842L23.8978 52.6213L23.0763 52.2672ZM7.78363 52.4842L8.6051 52.1301L9.05689 52.2671L8.23541 52.6212L7.78363 52.4842ZM24.5 51.7788L24.8791 51.6154L25.8581 51.9121L25.479 52.0754L24.5 51.7788ZM6.27513 51.9127L7.25413 51.6161L7.63328 51.7794L6.65419 52.0761L6.27513 51.9127ZM25.6674 51.2086L25.9624 51.024L27.0692 51.255L26.7743 51.4397L25.6674 51.2086ZM5.06348 51.255L6.17035 51.024L6.46529 51.2086L5.35852 51.4397L5.06348 51.255ZM26.5429 50.5735L26.7446 50.3731L27.9455 50.5311L27.7438 50.7315L26.5429 50.5735ZM4.1867 50.5311L5.38772 50.3731L5.58945 50.5735L4.38843 50.7315L4.1867 50.5311ZM27.1003 49.8931L27.2028 49.6831L28.4614 49.7632L28.3589 49.9733L27.1003 49.8931ZM3.67097 49.7632L4.9296 49.6831L5.03201 49.8931L3.77337 49.9733L3.67097 49.7632ZM27.3229 49.1881V48.9747H28.6005V49.1881H27.3229ZM3.53125 49.1881V48.9747H4.80884V49.1881H3.53125ZM27.1003 48.2694L28.3589 48.1891L28.4614 48.3992L27.2028 48.4795L27.1003 48.2694ZM3.67097 48.3992L3.77337 48.1891L5.03201 48.2694L4.9296 48.4795L3.67097 48.3992ZM26.5429 47.5889L27.7439 47.4309L27.9456 47.6313L26.7447 47.7893L26.5429 47.5889ZM4.1868 47.6313L4.38852 47.4309L5.58954 47.5889L5.38782 47.7893L4.1868 47.6313ZM25.667 46.9538L26.7739 46.7227L27.0688 46.9074L25.962 47.1384L25.667 46.9538ZM5.06311 46.9074L5.35815 46.7227L6.4649 46.9538L6.16995 47.1384L5.06311 46.9074ZM24.4995 46.3833L25.4785 46.0866L25.8577 46.25L24.8787 46.5466L24.4995 46.3833ZM6.27464 46.2493L6.65372 46.0859L7.63281 46.3826L7.25364 46.546L6.27464 46.2493ZM23.0756 45.8944L23.8971 45.5404L24.3489 45.6774L23.5275 46.0315L23.0756 45.8944ZM7.78295 45.6775L8.23485 45.5405L9.05633 45.8945L8.60454 46.0316L7.78295 45.6775ZM21.4392 45.5027L22.078 45.1025L22.5889 45.2092L21.9499 45.6094L21.4392 45.5027ZM9.54382 45.2091L10.0546 45.1024L10.6935 45.5026L10.1828 45.6093L9.54382 45.2091ZM19.6393 45.2197L20.0763 44.7855L20.6306 44.8584L20.1935 45.2926L19.6393 45.2197ZM11.5023 44.8584L12.0566 44.7855L12.4936 45.2197L11.9393 45.2926L11.5023 44.8584ZM17.7306 45.054L17.9526 44.5989L18.5335 44.636L18.3115 45.091L17.7306 45.054ZM13.5994 44.636L14.1803 44.5989L14.4023 45.054L13.8214 45.091L13.5994 44.636ZM15.7724 45.0063V44.5488H16.3599V45.0063H15.7724Z" fill="url(#paint1_linear_961_55294)"/>
<path d="M15.7728 53.6127V53.1554H16.3604V53.6127H15.7728ZM17.7311 53.1075L18.312 53.0704L18.5339 53.5256L17.9531 53.5626L17.7311 53.1075ZM13.5999 53.5256L13.8218 53.0704L14.4027 53.1075L14.1808 53.5626L13.5999 53.5256ZM19.6397 52.9418L20.194 52.8689L20.6311 53.303L20.0768 53.376L19.6397 52.9418ZM11.5028 53.303L11.9398 52.8689L12.4941 52.9418L12.0571 53.376L11.5028 53.303ZM21.4398 52.6588L21.9506 52.5522L22.5896 52.9524L22.0787 53.0591L21.4398 52.6588ZM9.54447 52.9524L10.1835 52.5522L10.6942 52.6588L10.0552 53.059L9.54447 52.9524ZM23.0763 52.2672L23.5282 52.1302L24.3495 52.4842L23.8978 52.6213L23.0763 52.2672ZM7.78363 52.4842L8.6051 52.1301L9.05689 52.2671L8.23541 52.6212L7.78363 52.4842ZM24.5 51.7788L24.8791 51.6154L25.8581 51.9121L25.479 52.0754L24.5 51.7788ZM6.27513 51.9127L7.25413 51.6161L7.63328 51.7794L6.65419 52.0761L6.27513 51.9127ZM25.6674 51.2086L25.9624 51.024L27.0692 51.255L26.7743 51.4397L25.6674 51.2086ZM5.06348 51.255L6.17035 51.024L6.46529 51.2086L5.35852 51.4397L5.06348 51.255ZM26.5429 50.5735L26.7446 50.3731L27.9455 50.5311L27.7438 50.7315L26.5429 50.5735ZM4.1867 50.5311L5.38772 50.3731L5.58945 50.5735L4.38843 50.7315L4.1867 50.5311ZM27.1003 49.8931L27.2028 49.6831L28.4614 49.7632L28.3589 49.9733L27.1003 49.8931ZM3.67097 49.7632L4.9296 49.6831L5.03201 49.8931L3.77337 49.9733L3.67097 49.7632ZM27.3229 49.1881V48.9747H28.6005V49.1881H27.3229ZM3.53125 49.1881V48.9747H4.80884V49.1881H3.53125ZM27.1003 48.2694L28.3589 48.1891L28.4614 48.3992L27.2028 48.4795L27.1003 48.2694ZM3.67097 48.3992L3.77337 48.1891L5.03201 48.2694L4.9296 48.4795L3.67097 48.3992ZM26.5429 47.5889L27.7439 47.4309L27.9456 47.6313L26.7447 47.7893L26.5429 47.5889ZM4.1868 47.6313L4.38852 47.4309L5.58954 47.5889L5.38782 47.7893L4.1868 47.6313ZM25.667 46.9538L26.7739 46.7227L27.0688 46.9074L25.962 47.1384L25.667 46.9538ZM5.06311 46.9074L5.35815 46.7227L6.4649 46.9538L6.16995 47.1384L5.06311 46.9074ZM24.4995 46.3833L25.4785 46.0866L25.8577 46.25L24.8787 46.5466L24.4995 46.3833ZM6.27464 46.2493L6.65372 46.0859L7.63281 46.3826L7.25364 46.546L6.27464 46.2493ZM23.0756 45.8944L23.8971 45.5404L24.3489 45.6774L23.5275 46.0315L23.0756 45.8944ZM7.78295 45.6775L8.23485 45.5405L9.05633 45.8945L8.60454 46.0316L7.78295 45.6775ZM21.4392 45.5027L22.078 45.1025L22.5889 45.2092L21.9499 45.6094L21.4392 45.5027ZM9.54382 45.2091L10.0546 45.1024L10.6935 45.5026L10.1828 45.6093L9.54382 45.2091ZM19.6393 45.2197L20.0763 44.7855L20.6306 44.8584L20.1935 45.2926L19.6393 45.2197ZM11.5023 44.8584L12.0566 44.7855L12.4936 45.2197L11.9393 45.2926L11.5023 44.8584ZM17.7306 45.054L17.9526 44.5989L18.5335 44.636L18.3115 45.091L17.7306 45.054ZM13.5994 44.636L14.1803 44.5989L14.4023 45.054L13.8214 45.091L13.5994 44.636ZM15.7724 45.0063V44.5488H16.3599V45.0063H15.7724Z" fill="url(#paint2_linear_961_55294)"/>
<g filter="url(#filter0_f_961_55294)">
<path d="M13.3975 55.4706C13.3975 55.4706 20.6801 55.1801 23.4947 54.541C23.427 54.7347 19.75 56.19 13.3975 55.4706Z" fill="#00FFF9"/>
</g>
<g filter="url(#filter1_f_961_55294)">
<path d="M15.0229 55.4453C15.0229 55.4453 19.9619 55.236 21.8705 54.7754C21.8243 54.9152 19.331 55.9634 15.0229 55.4453Z" fill="white"/>
</g>
<g filter="url(#filter2_f_961_55294)">
<path d="M10.0342 50.2246C10.0342 50.2246 13.1753 50.7466 14.4407 50.7183C14.3929 50.7968 12.6791 51.1047 10.0342 50.2246Z" fill="white"/>
</g>
<g filter="url(#filter3_f_961_55294)">
<path d="M13.7456 50.706C13.7456 50.706 15.5482 49.2099 17.6916 50.8222C17.5835 50.831 15.9972 51.1244 13.7456 50.706Z" fill="white"/>
</g>
<g opacity="0.549">
<path opacity="0.1" d="M12.3529 50.5907L4.11328 27.8145H27.3253L18.969 50.5907C18.969 50.5907 16.2603 51.6753 12.3529 50.5907Z" fill="url(#paint3_linear_961_55294)"/>
</g>
<g opacity="0.051">
<path opacity="0.59" d="M14.0023 50.6928L9.7998 39.0859H21.6378L17.376 50.6928C17.376 50.6928 15.995 51.2454 14.0023 50.6928Z" fill="url(#paint4_linear_961_55294)"/>
</g>
<path d="M15.8999 49.3887V25.5781" stroke="url(#paint5_linear_961_55294)" stroke-width="0.721702"/>
<g filter="url(#filter4_i_961_55294)">
<circle cx="15.8998" cy="14.0316" r="11.5472" fill="#002B52" fill-opacity="0.7"/>
</g>
<circle cx="15.8998" cy="14.0316" r="11.1864" stroke="#67DDDA" stroke-width="0.721702"/>
<path d="M21.2596 20.5286H19.4971L19.1282 19.6952H12.816L12.4471 20.5286H10.6846L12.4881 17.919C12.1328 17.8188 11.8414 17.6184 11.6136 17.3178C11.3859 17.0173 11.2721 16.6711 11.2721 16.2795V10.2952C11.2721 10.0583 11.3336 9.83289 11.4565 9.61884C11.5795 9.40479 11.7298 9.20896 11.9074 9.03134C12.085 8.85373 12.2672 8.70116 12.4539 8.57364C12.6406 8.44612 12.8023 8.35048 12.9389 8.28672C13.0756 8.22296 13.2259 8.15465 13.3898 8.08178C13.5538 8.00891 13.7496 7.94515 13.9773 7.8905C14.205 7.83585 14.4692 7.7903 14.7698 7.75387C15.0703 7.71744 15.421 7.69922 15.8218 7.69922C16.2772 7.69922 16.678 7.71971 17.0241 7.7607C17.3702 7.80169 17.6731 7.85634 17.9327 7.92466C18.1923 7.99297 18.42 8.07039 18.6158 8.15692C18.8117 8.24345 18.9916 8.33226 19.1555 8.42335C19.3195 8.51443 19.4925 8.61918 19.6747 8.73759C19.8569 8.856 20.0208 8.99035 20.1666 9.14065C20.3123 9.29094 20.433 9.46172 20.5286 9.653C20.6243 9.84428 20.6721 10.0583 20.6721 10.2952V16.2795C20.6721 16.6711 20.556 17.0173 20.3237 17.3178C20.0914 17.6184 19.7977 17.8188 19.4424 17.919L21.2596 20.5286ZM14.6878 8.5873C14.5694 8.5873 14.4692 8.62829 14.3872 8.71027C14.3052 8.79224 14.2642 8.89699 14.2642 9.02451C14.2642 9.14292 14.3052 9.24312 14.3872 9.32509C14.4692 9.40707 14.5694 9.44806 14.6878 9.44806H17.2837C17.4021 9.44806 17.5023 9.40707 17.5843 9.32509C17.6663 9.24312 17.7073 9.14292 17.7073 9.02451C17.7073 8.89699 17.6663 8.79224 17.5843 8.71027C17.5023 8.62829 17.4021 8.5873 17.2837 8.5873H14.6878ZM12.1192 12.8638H19.8113V10.2952H12.1192V12.8638ZM12.5564 17.3042C12.7203 17.3042 12.8615 17.245 12.9799 17.1266C13.0983 17.0081 13.1575 16.867 13.1575 16.703C13.1575 16.53 13.0983 16.3842 12.9799 16.2658C12.8615 16.1474 12.7203 16.0882 12.5564 16.0882C12.3833 16.0882 12.2376 16.1474 12.1192 16.2658C12.0008 16.3842 11.9415 16.53 11.9415 16.703C11.9415 16.867 12.0008 17.0081 12.1192 17.1266C12.2376 17.245 12.3833 17.3042 12.5564 17.3042ZM18.732 18.8481L18.3494 17.9873H13.5947L13.1985 18.8481H18.732ZM18.773 16.703C18.773 16.867 18.8322 17.0081 18.9506 17.1266C19.069 17.245 19.2147 17.3042 19.3878 17.3042C19.5608 17.3042 19.7066 17.245 19.825 17.1266C19.9434 17.0081 20.0026 16.867 20.0026 16.703C20.0026 16.53 19.9434 16.3842 19.825 16.2658C19.7066 16.1474 19.5608 16.0882 19.3878 16.0882C19.2147 16.0882 19.069 16.1474 18.9506 16.2658C18.8322 16.3842 18.773 16.53 18.773 16.703Z" fill="url(#paint6_linear_961_55294)"/>
<path d="M28.2247 9.00271H70.1046V19.06H28.2247H28.1028L28.054 19.1716C26.0708 23.7108 21.5417 26.8823 16.2723 26.8823C16.0851 26.8823 15.8988 26.8783 15.7136 26.8704V1.19231C15.8988 1.18439 16.0851 1.18039 16.2723 1.18039C21.5417 1.18039 26.0708 4.35193 28.054 8.89103L28.1028 9.00271H28.2247Z" fill="url(#paint7_linear_961_55294)" stroke="url(#paint8_linear_961_55294)" stroke-width="0.372491"/>
<path d="M30.6134 14.0311L28.751 11.9824L29.8152 14.0311L28.751 16.0798L30.6134 14.0311Z" fill="#05B4AF"/>
<path d="M29.496 14.0308L28.751 13.0996L29.1767 14.0308L28.751 14.9621L29.496 14.0308Z" fill="#05B4AF"/>
<ellipse cx="15.6918" cy="49.15" rx="4.08097" ry="1.63239" fill="#01E5DF"/>
<g filter="url(#filter5_f_961_55294)">
<ellipse cx="15.6918" cy="49.15" rx="4.08097" ry="1.63239" fill="#FCFFFF"/>
</g>
<defs>
<filter id="filter0_f_961_55294" x="11.6813" y="52.8249" width="13.5295" height="4.55927" filterUnits="userSpaceOnUse" color-interpolation-filters="sRGB">
<feFlood flood-opacity="0" result="BackgroundImageFix"/>
<feBlend mode="normal" in="SourceGraphic" in2="BackgroundImageFix" result="shape"/>
<feGaussianBlur stdDeviation="0.85808" result="effect1_foregroundBlur_961_55294"/>
</filter>
<filter id="filter1_f_961_55294" x="13.3068" y="53.0592" width="10.28" height="4.24482" filterUnits="userSpaceOnUse" color-interpolation-filters="sRGB">
<feFlood flood-opacity="0" result="BackgroundImageFix"/>
<feBlend mode="normal" in="SourceGraphic" in2="BackgroundImageFix" result="shape"/>
<feGaussianBlur stdDeviation="0.85808" result="effect1_foregroundBlur_961_55294"/>
</filter>
<filter id="filter2_f_961_55294" x="9.34772" y="49.5381" width="5.77967" height="1.9823" filterUnits="userSpaceOnUse" color-interpolation-filters="sRGB">
<feFlood flood-opacity="0" result="BackgroundImageFix"/>
<feBlend mode="normal" in="SourceGraphic" in2="BackgroundImageFix" result="shape"/>
<feGaussianBlur stdDeviation="0.343232" result="effect1_foregroundBlur_961_55294"/>
</filter>
<filter id="filter3_f_961_55294" x="12.1132" y="48.4418" width="7.21058" height="4.12025" filterUnits="userSpaceOnUse" color-interpolation-filters="sRGB">
<feFlood flood-opacity="0" result="BackgroundImageFix"/>
<feBlend mode="normal" in="SourceGraphic" in2="BackgroundImageFix" result="shape"/>
<feGaussianBlur stdDeviation="0.816194" result="effect1_foregroundBlur_961_55294"/>
</filter>
<filter id="filter4_i_961_55294" x="4.35254" y="2.48438" width="23.0942" height="24.5372" filterUnits="userSpaceOnUse" color-interpolation-filters="sRGB">
<feFlood flood-opacity="0" result="BackgroundImageFix"/>
<feBlend mode="normal" in="SourceGraphic" in2="BackgroundImageFix" result="shape"/>
<feColorMatrix in="SourceAlpha" type="matrix" values="0 0 0 0 0 0 0 0 0 0 0 0 0 0 0 0 0 0 127 0" result="hardAlpha"/>
<feMorphology radius="0.721702" operator="erode" in="SourceAlpha" result="effect1_innerShadow_961_55294"/>
<feOffset dy="1.4434"/>
<feGaussianBlur stdDeviation="5.77362"/>
<feComposite in2="hardAlpha" operator="arithmetic" k2="-1" k3="1"/>
<feColorMatrix type="matrix" values="0 0 0 0 0 0 0 0 0 0.45 0 0 0 0 0.44 0 0 0 1 0"/>
<feBlend mode="normal" in2="shape" result="effect1_innerShadow_961_55294"/>
</filter>
<filter id="filter5_f_961_55294" x="9.33716" y="45.2439" width="12.7095" height="7.81299" filterUnits="userSpaceOnUse" color-interpolation-filters="sRGB">
<feFlood flood-opacity="0" result="BackgroundImageFix"/>
<feBlend mode="normal" in="SourceGraphic" in2="BackgroundImageFix" result="shape"/>
<feGaussianBlur stdDeviation="1.13684" result="effect1_foregroundBlur_961_55294"/>
</filter>
<linearGradient id="paint0_linear_961_55294" x1="15.3049" y1="52.5412" x2="15.5622" y2="46.3932" gradientUnits="userSpaceOnUse">
<stop stop-color="#0AA29E"/>
<stop offset="1" stop-color="#0AA19E" stop-opacity="0"/>
</linearGradient>
<linearGradient id="paint1_linear_961_55294" x1="-215.624" y1="44.9114" x2="-172.938" y2="-42.5868" gradientUnits="userSpaceOnUse">
<stop offset="0.817708" stop-color="#00FFF9"/>
<stop offset="1" stop-color="#00FFF9" stop-opacity="0"/>
</linearGradient>
<linearGradient id="paint2_linear_961_55294" x1="-215.624" y1="44.9114" x2="-172.938" y2="-42.5868" gradientUnits="userSpaceOnUse">
<stop offset="0.817708" stop-color="#00FFF9"/>
<stop offset="1" stop-color="#00FFF9" stop-opacity="0"/>
</linearGradient>
<linearGradient id="paint3_linear_961_55294" x1="14.2569" y1="46.3048" x2="17.1928" y2="32.5848" gradientUnits="userSpaceOnUse">
<stop stop-color="#00FFF9"/>
<stop offset="1" stop-color="#00FFF9" stop-opacity="0"/>
</linearGradient>
<linearGradient id="paint4_linear_961_55294" x1="14.8428" y1="49.1605" x2="16.5989" y2="40.8647" gradientUnits="userSpaceOnUse">
<stop stop-color="#00FFF9"/>
<stop offset="1" stop-color="#00FFF9" stop-opacity="0"/>
</linearGradient>
<linearGradient id="paint5_linear_961_55294" x1="19.7749" y1="49.3887" x2="19.7749" y2="11.7749" gradientUnits="userSpaceOnUse">
<stop stop-color="#00FFF9"/>
<stop offset="1" stop-color="#00FFF9"/>
</linearGradient>
<linearGradient id="paint6_linear_961_55294" x1="11.7427" y1="11.4921" x2="14.6423" y2="21.4993" gradientUnits="userSpaceOnUse">
<stop stop-color="#00FFF9"/>
<stop offset="1" stop-color="#00FFF9"/>
</linearGradient>
<linearGradient id="paint7_linear_961_55294" x1="64.2844" y1="14.0313" x2="15.5273" y2="14.0313" gradientUnits="userSpaceOnUse">
<stop stop-color="#00A8A3"/>
<stop offset="0.701388" stop-color="#017E7B" stop-opacity="0.81"/>
<stop offset="1" stop-color="#01E5DF" stop-opacity="0"/>
</linearGradient>
<linearGradient id="paint8_linear_961_55294" x1="40.1118" y1="13.6588" x2="15.5273" y2="13.6588" gradientUnits="userSpaceOnUse">
<stop stop-color="#78FFFC" stop-opacity="0"/>
<stop offset="0.0001" stop-color="#78FFFC" stop-opacity="0"/>
<stop offset="0.514158" stop-color="#D2F4FF" stop-opacity="0.36"/>
<stop offset="1" stop-color="#9FEEFF" stop-opacity="0"/>
</linearGradient>
</defs>
</svg>
