<svg width="266" height="81" viewBox="0 0 266 81" fill="none" xmlns="http://www.w3.org/2000/svg">
<rect x="47.1553" y="6.36133" width="205" height="47" fill="#00FFF9" fill-opacity="0.2"/>
<rect x="47.1553" y="6.36133" width="205" height="47" stroke="#00FFF9"/>
<path fill-rule="evenodd" clip-rule="evenodd" d="M47.6514 0.355469H42.6514H41.6514V1.35547V6.35547H42.6514L42.6514 1.35547H47.6514V0.355469Z" fill="#00FFF9"/>
<path fill-rule="evenodd" clip-rule="evenodd" d="M47.6514 57.3555H42.6514H41.6514V56.3555V51.3555H42.6514L42.6514 56.3555H47.6514V57.3555Z" fill="#00FFF9"/>
<path fill-rule="evenodd" clip-rule="evenodd" d="M251.651 57.3555H256.651H257.651V56.3555V51.3555H256.651L256.651 56.3555H251.651V57.3555Z" fill="#00FFF9"/>
<path fill-rule="evenodd" clip-rule="evenodd" d="M251.651 0.355469H256.651H257.651V1.35547V6.35547H256.651L256.651 1.35547H251.651V0.355469Z" fill="#00FFF9"/>
<path d="M42.451 30.9434L47.451 33.3301V27.5566L42.451 29.9434V30.9434ZM23.7702 30.4434V29.9434H23.4448L23.3131 30.2409L23.7702 30.4434ZM1.69729 80.2854L5.50571 78.8148L4.03513 75.0064L0.226712 76.477L1.69729 80.2854ZM42.951 29.9434H23.7702V30.9434H42.951V29.9434ZM23.3131 30.2409L2.40904 77.4434L3.32339 77.8484L24.2274 30.6458L23.3131 30.2409Z" fill="#00FFF9"/>
</svg>
