<?xml version="1.0" encoding="UTF-8"?>
<svg width="24px" height="24px" viewBox="0 0 24 24" version="1.1" xmlns="http://www.w3.org/2000/svg" xmlns:xlink="http://www.w3.org/1999/xlink">
    <!-- <title>icon-菜单</title> -->
    <g id="财政税收" stroke="none" stroke-width="1" fill="none" fill-rule="evenodd">
        <g id="画板" transform="translate(-1724.000000, -28.000000)" fill-rule="nonzero">
            <g id="icon-菜单" transform="translate(1724.000000, 28.000000)">
                <rect id="矩形" fill="#FFFFFF" opacity="0" x="0" y="0" width="24" height="24"></rect>
                <path d="M3.73828125,2.999219 C2.6671875,2.999219 1.7953125,3.871094 1.7953125,4.94218775 C1.7953125,6.0132815 2.6671875,6.8851565 3.73828125,6.8851565 C4.809375,6.8851565 5.68125,6.0132815 5.68125,4.94218775 C5.68125,3.871094 4.809375,2.999219 3.73828125,2.999219 Z" id="路径" fill="#4FABF2"></path>
                <path d="M3.73828125,10.1 C2.6671875,10.1 1.7953125,10.971875 1.7953125,12.0429688 C1.7953125,13.1140625 2.6671875,13.9859375 3.73828125,13.9859375 C4.809375,13.9859375 5.68125,13.1140625 5.68125,12.0429688 C5.68125,10.971875 4.809375,10.1 3.73828125,10.1 Z" id="路径" fill="#4FABF2"></path>
                <path d="M3.73828125,17.203125 C2.6671875,17.203125 1.7953125,18.075 1.7953125,19.1460937 C1.7953125,20.2171875 2.6671875,21.0890625 3.73828125,21.0890625 C4.809375,21.0890625 5.68125,20.2171875 5.68125,19.1460937 C5.68125,18.075 4.809375,17.203125 3.73828125,17.203125 Z" id="路径" fill="#4FABF2"></path>
                <path d="M21.2789063,3.064844 L7.82578125,3.064844 C7.29609375,3.064844 6.8625,3.496094 6.8625,4.02812525 L6.8625,5.85625025 C6.8625,6.38593775 7.29375,6.8195315 7.82578125,6.8195315 L21.28125,6.8195315 C21.8109375,6.81718775 22.2398438,6.38593775 22.2398438,5.85625025 L22.2398438,4.02812525 C22.2398438,3.49843775 21.8085938,3.064844 21.2789063,3.064844 Z" id="路径" fill="#4FABF2"></path>
                <path d="M21.2789063,10.167969 L7.82578125,10.167969 C7.29609375,10.167969 6.8625,10.599219 6.8625,11.1312502 L6.8625,12.9593752 C6.8625,13.4890627 7.29375,13.9226565 7.82578125,13.9226565 L21.2765625,13.9226565 C21.80625,13.9226565 22.2398438,13.4914065 22.2398438,12.9593752 L22.2398438,11.1312502 C22.2398438,10.599219 21.8085938,10.167969 21.2789063,10.167969 Z" id="路径" fill="#4FABF2"></path>
                <path d="M21.2789063,17.271094 L7.82578125,17.271094 C7.29609375,17.271094 6.8625,17.702344 6.8625,18.2343752 L6.8625,20.0625002 C6.8625,20.5921877 7.29375,21.0257815 7.82578125,21.0257815 L21.2765625,21.0257815 C21.80625,21.0257815 22.2398438,20.5945315 22.2398438,20.0625002 L22.2398438,18.2343752 C22.2398438,17.702344 21.8085938,17.271094 21.2789063,17.271094 Z" id="路径" fill="#4FABF2"></path>
            </g>
        </g>
    </g>
</svg>