<?xml version="1.0" encoding="UTF-8"?>
<svg width="24px" height="24px" viewBox="0 0 24 24" version="1.1" xmlns="http://www.w3.org/2000/svg" xmlns:xlink="http://www.w3.org/1999/xlink">
    <!-- <title>icon-关闭</title> -->
    <g id="财政税收" stroke="none" stroke-width="1" fill="none" fill-rule="evenodd">
        <g id="画板" transform="translate(-1836.000000, -28.000000)" fill-rule="nonzero">
            <g id="icon-关闭" transform="translate(1836.000000, 28.000000)">
                <rect id="矩形" fill="#000000" opacity="0" x="0" y="0" width="24" height="24"></rect>
                <path d="M19.2087219,3.95870231 C14.8147317,-0.016634278 8.08559998,0.0140388939 3.72766829,4.05048766 C-1.2425561,8.65403887 -1.2425561,16.292595 3.72766829,20.8961462 C8.08560001,24.932595 14.8147317,24.963034 19.2087219,20.9879316 C24.3517463,16.3347413 24.3517463,8.61165841 19.2087219,3.95870231 L19.2087219,3.95870231 Z M16.3521366,17.3097267 C16.0777171,17.5841462 15.6330732,17.5841462 15.3586536,17.3097267 L11.5671219,13.518195 C11.5516683,13.5027413 11.5266146,13.5027413 11.5109268,13.518195 L7.72056584,17.3087901 C7.44614633,17.5832096 7.00150243,17.5832096 6.72708291,17.3087901 L6.72614633,17.3078535 C6.45172681,17.033434 6.45172681,16.5887901 6.72614633,16.3143706 L10.5167415,12.5237755 C10.5321951,12.5083218 10.5321951,12.4832682 10.5167415,12.4675803 L6.72520974,8.67651693 C6.45079022,8.40209742 6.45079022,7.95745352 6.72520974,7.683034 L6.72614633,7.68209742 C7.00056584,7.4076779 7.44520974,7.4076779 7.71962926,7.68209742 L11.511161,11.4736291 C11.5266146,11.4890828 11.5516683,11.4890828 11.5673561,11.4736291 L15.3598244,7.68116083 C15.6342439,7.40674132 16.0788878,7.40674132 16.3533073,7.68116083 L16.3542439,7.68209742 C16.6286634,7.95651693 16.6286634,8.40116083 16.3542439,8.67558035 L12.5615415,12.4678145 C12.5460878,12.4832681 12.5460878,12.5083218 12.5615415,12.5240096 L16.352839,16.3155413 C16.6272585,16.5899608 16.6272585,17.0346047 16.352839,17.3090242 L16.3521366,17.3097267 Z" id="形状" fill="#54B5FF"></path>
            </g>
        </g>
    </g>
</svg>