<?xml version="1.0" encoding="UTF-8"?>
<svg width="14px" height="14px" viewBox="0 0 14 14" version="1.1" xmlns="http://www.w3.org/2000/svg" xmlns:xlink="http://www.w3.org/1999/xlink">
    <!-- <title>icon-数据来源</title> -->
    <g id="财政概览" stroke="none" stroke-width="1" fill="none" fill-rule="evenodd">
        <g id="经济运行-经济概况" transform="translate(-1208.000000, -979.000000)" fill="#247EC8" fill-rule="nonzero">
            <g id="编组-2" transform="translate(60.000000, 692.000000)">
                <g id="编组-14" transform="translate(1148.000000, 284.000000)">
                    <g id="icon-数据来源" transform="translate(0.000000, 3.000000)">
                        <path d="M12.2283543,1.16685351 C11.4757157,0.414305824 10.4721976,0 9.40555487,0 L9.40393629,0 C8.33567503,0 7.33377544,0.414305824 6.58113683,1.16685351 L4.3280767,3.41964143 L5.17944856,4.27091042 L7.43412726,2.01974089 C8.52019288,0.933806485 10.2892983,0.933806485 11.3753639,2.01974089 C12.4614295,3.1056753 12.4614295,4.87294857 11.3753639,5.96050136 L9.1206852,8.21328928 L9.97205705,9.06455827 L12.2283543,6.81177036 C12.980993,6.05922267 13.3953488,5.05744414 13.3953488,3.98931193 C13.3953488,2.92117973 12.980993,1.9194012 12.2283543,1.16685351 L12.2283543,1.16685351 Z M5.959603,11.3739896 C5.43518383,11.8999638 4.7343397,12.1912725 3.98979397,12.1912725 C3.24524824,12.1912725 2.5444041,11.9015821 2.01836636,11.3739896 C1.49232862,10.8480154 1.20260321,10.1488743 1.20260321,9.40441852 C1.20260321,8.65996274 1.49232862,7.95920328 2.01836636,7.43484748 L4.27142648,5.18044118 L3.42005463,4.32917218 L1.1669945,6.58034171 C0.414355885,7.3328894 0,8.33466794 0,9.40280014 C0,10.4709323 0.414355885,11.4727109 1.1669945,12.2252586 C1.9212517,12.9794246 2.92315128,13.3953488 3.98979397,13.3953488 C5.05643666,13.3953488 6.05833624,12.9794246 6.81259343,12.2252586 L9.06403498,9.97247065 L8.21266312,9.12120165 L5.959603,11.3739896 Z" id="形状"></path>
                        <polygon id="路径" points="3.73054638 8.80951744 8.80825115 3.7338665 9.66078838 4.58652731 4.58308362 9.66219443"></polygon>
                    </g>
                </g>
            </g>
        </g>
    </g>
</svg>