<svg width="18" height="18" viewBox="0 0 18 18" fill="none" xmlns="http://www.w3.org/2000/svg">
<path id="&#229;&#189;&#162;&#231;&#138;&#182;" fill-rule="evenodd" clip-rule="evenodd" d="M13.1666 2.50016H16.5C16.9602 2.50016 17.3333 2.87326 17.3333 3.3335V16.6668C17.3333 17.1271 16.9602 17.5002 16.5 17.5002H1.49996C1.03972 17.5002 0.666626 17.1271 0.666626 16.6668V3.3335C0.666626 2.87326 1.03972 2.50016 1.49996 2.50016H4.83329V0.833496H6.49996V2.50016H11.5V0.833496H13.1666V2.50016ZM11.5 4.16683H6.49996V5.8335H4.83329V4.16683H2.33329V7.50016H15.6666V4.16683H13.1666V5.8335H11.5V4.16683ZM15.6666 9.16683H2.33329V15.8335H15.6666V9.16683Z" fill="#54B5FF" fill-opacity="0.5"/>
</svg>
