<svg width="66" height="64" viewBox="0 0 66 64" fill="none" xmlns="http://www.w3.org/2000/svg">
<rect x="1" width="64" height="64" rx="2" fill="#4BDEFF" fill-opacity="0.1"/>
<rect x="1.5" y="0.5" width="63" height="63" rx="1.5" stroke="#4BDEFF" stroke-opacity="0.5"/>
<path opacity="0.1" d="M1 32.5L65 32" stroke="#4BDEFF" stroke-dasharray="2 2"/>
<path opacity="0.1" d="M32.5 0V64" stroke="#4BDEFF" stroke-dasharray="2 2"/>
<circle cx="33" cy="32" r="20" stroke="url(#paint0_angular_325_71928)" stroke-dasharray="2 2"/>
<rect opacity="0.2" x="9" y="8" width="48" height="48" rx="2" fill="#4BDEFF" fill-opacity="0.2" stroke="#4BDEFF"/>
<path d="M45 8.5H55V7.5H45V8.5ZM56.5 10V20H57.5V10H56.5ZM55 8.5C55.8284 8.5 56.5 9.17157 56.5 10H57.5C57.5 8.61929 56.3807 7.5 55 7.5V8.5ZM56.5 44V54H57.5V44H56.5ZM55 55.5H45V56.5H55V55.5ZM56.5 54C56.5 54.8284 55.8284 55.5 55 55.5V56.5C56.3807 56.5 57.5 55.3807 57.5 54H56.5ZM21 55.5H11V56.5H21V55.5ZM9.5 54V44H8.5V54H9.5ZM11 55.5C10.1716 55.5 9.5 54.8284 9.5 54H8.5C8.5 55.3807 9.61929 56.5 11 56.5V55.5ZM9.5 20V10H8.5V20H9.5ZM11 8.5H21V7.5H11V8.5ZM9.5 10C9.5 9.17157 10.1716 8.5 11 8.5V7.5C9.61929 7.5 8.5 8.61929 8.5 10H9.5Z" fill="#4BDEFF"/>
<path d="M26.6251 33.9688V24.4531C26.6251 23.4172 25.786 22.5781 24.7501 22.5781H22.7345C21.3095 22.5781 19.936 23.1219 18.8907 24.0969L13.2517 29.3703C12.8762 29.7206 12.5767 30.1444 12.3719 30.6153C12.1671 31.0863 12.0613 31.5943 12.061 32.1078V43.9063C12.061 44.9422 12.9001 45.7813 13.936 45.7813H14.8876C14.8876 42.4625 17.5782 39.7625 20.9017 39.7625C24.2251 39.7625 26.911 42.4531 26.911 45.7766C26.911 45.7813 39.497 45.7859 39.497 45.7813C39.497 42.4625 42.1876 39.7625 45.5063 39.7625C48.8251 39.7625 51.5157 42.4672 51.5157 45.7859C51.5157 45.7906 53.4517 45.7813 53.4517 45.7813C54.4876 45.7813 55.3267 44.9422 55.3267 43.9063V37.7188C55.3267 36.6828 54.4876 35.8438 53.4517 35.8438H28.5001C27.4642 35.8438 26.6251 35.0047 26.6251 33.9688Z" fill="#4BDEFF"/>
<path d="M17.1846 45.9502C17.1846 46.9572 17.5846 47.9229 18.2966 48.635C19.0087 49.347 19.9745 49.7471 20.9814 49.7471C21.9884 49.7471 22.9542 49.347 23.6662 48.635C24.3783 47.9229 24.7783 46.9572 24.7783 45.9502C24.7783 44.9432 24.3783 43.9775 23.6662 43.2654C22.9542 42.5533 21.9884 42.1533 20.9814 42.1533C19.9745 42.1533 19.0087 42.5533 18.2966 43.2654C17.5846 43.9775 17.1846 44.9432 17.1846 45.9502Z" fill="#4BDEFF"/>
<path d="M41.7939 45.9502C41.7939 46.9572 42.194 47.9229 42.906 48.635C43.6181 49.347 44.5838 49.7471 45.5908 49.7471C46.5978 49.7471 47.5636 49.347 48.2756 48.635C48.9877 47.9229 49.3877 46.9572 49.3877 45.9502C49.3877 44.9432 48.9877 43.9775 48.2756 43.2654C47.5636 42.5533 46.5978 42.1533 45.5908 42.1533C44.5838 42.1533 43.6181 42.5533 42.906 43.2654C42.194 43.9775 41.7939 44.9432 41.7939 45.9502Z" fill="#4BDEFF"/>
<rect x="29" y="19" width="25" height="14" rx="2" fill="#4BDEFF"/>
<defs>
<radialGradient id="paint0_angular_325_71928" cx="0" cy="0" r="1" gradientUnits="userSpaceOnUse" gradientTransform="translate(33 32) scale(20)">
<stop offset="0.116068" stop-color="#4B94FF" stop-opacity="0.2"/>
<stop offset="0.25" stop-color="#4B94FF" stop-opacity="0.01"/>
<stop offset="0.588446" stop-color="#4B94FF" stop-opacity="0.2"/>
<stop offset="0.745114" stop-color="#4B94FF" stop-opacity="0.01"/>
</radialGradient>
</defs>
</svg>
