<svg width="35" height="24" viewBox="0 0 35 24" fill="none" xmlns="http://www.w3.org/2000/svg">
<path fill-rule="evenodd" clip-rule="evenodd" d="M10 10C10 10 11.8381 14.0701 8.4756 17.4236C5.11308 20.7771 0 23 0 23H7.23847C7.23847 23 12.7826 19.1038 12.6041 15.1183C12.4256 11.1328 10 10 10 10Z" fill="url(#paint0_linear_511_51532)"/>
<path fill-rule="evenodd" clip-rule="evenodd" d="M10 10C10 10 11.2545 10.9727 11.6677 11.6968C12.7124 13.5273 12.8714 15.514 11.9417 17.5623C10.3958 20.9686 7 23 7 23H14.2385C14.2385 23 15.7101 20.0319 15.8345 18.0587C15.8535 17.7576 15.863 17.4489 15.863 17.1325C15.863 13.5489 10 10 10 10Z" fill="url(#paint1_linear_511_51532)"/>
<path fill-rule="evenodd" clip-rule="evenodd" d="M10 10C10 10 14.3262 11.2924 15.9901 12.3039C18.0393 13.5495 19.6579 14.6152 21.8327 17.1654C22.3928 17.8223 23.0902 18.6022 23.729 19.5C24.4525 20.5168 25.8009 23 25.8009 23H33.6653C33.6653 23 31.2883 20.9991 28.3696 18.8518C25.4508 16.7045 25.7613 17.0161 23.729 15.5511C21.6968 14.086 18.3051 12.6173 16.2802 11.8004C14.3262 11.0122 10 10 10 10Z" fill="url(#paint2_linear_511_51532)"/>
<path fill-rule="evenodd" clip-rule="evenodd" d="M10 10C10 10 13.4714 11.4672 14.6504 12.2507C16.5976 13.5448 17.9801 14.9981 19.3602 17.1911C20.7403 19.384 20.8267 23 20.8267 23H25.8009C25.8009 23 25.2109 20.9433 24.2486 19.5C23.2864 18.0567 21.3673 15.6638 19.14 14.1431C16.9127 12.6225 15.9226 12.1245 13.9901 11.2924C12.7056 10.7393 10 10 10 10Z" fill="url(#paint3_linear_511_51532)"/>
<path fill-rule="evenodd" clip-rule="evenodd" d="M9.99999 10C9.99999 10 10.7112 10.3265 11.7454 11.3636C12.6248 12.2455 13.9092 14.5813 12.4952 18.4423C11.7967 20.3497 9.36426 23 9.36426 23L23.3144 23.0428C23.3144 23.0428 23.1269 21.0373 22.6383 19.8819C21.8326 17.9768 20.171 15.4274 16.276 12.8928C14.0515 11.4453 9.99999 10 9.99999 10Z" fill="url(#paint4_linear_511_51532)"/>
<rect x="24" width="11" height="23" rx="1" fill="url(#paint5_linear_511_51532)"/>
<circle cx="29.5" cy="4.5" r="3" fill="#EC4B3D" stroke="#204177"/>
<circle cx="29.5" cy="11.5" r="3" fill="#FFD036" stroke="#204177"/>
<circle cx="29.5" cy="18.5" r="3" fill="#3BC46B" stroke="#204177"/>
<path fill-rule="evenodd" clip-rule="evenodd" d="M20.5684 2H23.5684V7.62817H22.2526C22.2526 7.62817 22.4862 6.43748 22.0004 4.81408C21.5146 3.19068 20.5684 2 20.5684 2Z" fill="#1F437F"/>
<path fill-rule="evenodd" clip-rule="evenodd" d="M20.5684 9H23.5684V14.6282H22.2526C22.2526 14.6282 22.4862 13.4375 22.0004 11.8141C21.5146 10.1907 20.5684 9 20.5684 9Z" fill="#1F437F"/>
<path fill-rule="evenodd" clip-rule="evenodd" d="M14.4121 13.9278C14.7837 14.5249 15.1127 15.0921 15.3989 15.629L16.2813 15.1585C15.9842 14.6012 15.6441 14.0149 15.2611 13.3994L14.4121 13.9278ZM16.2295 17.3915C16.326 17.6331 16.4109 17.8662 16.4842 18.0906C16.591 18.4185 16.6662 18.7841 16.7103 19.1931L17.7045 19.0861C17.6533 18.6106 17.5642 18.1774 17.4349 17.7806C17.3547 17.5349 17.2625 17.2817 17.1581 17.0205L16.2295 17.3915ZM16.474 22.8849C16.5886 22.2509 16.6682 21.6606 16.7131 21.1143L17.7098 21.1962C17.6621 21.776 17.5782 22.3981 17.458 23.0628L16.474 22.8849Z" fill="url(#paint6_linear_511_51532)"/>
<defs>
<linearGradient id="paint0_linear_511_51532" x1="-15.2039" y1="48.6468" x2="15.754" y2="34.8759" gradientUnits="userSpaceOnUse">
<stop stop-color="#FEFDFF"/>
<stop offset="1" stop-color="#1E9B1C"/>
</linearGradient>
<linearGradient id="paint1_linear_511_51532" x1="7" y1="10" x2="7" y2="23" gradientUnits="userSpaceOnUse">
<stop stop-color="#AFE3FF"/>
<stop offset="1" stop-color="#FEFDFF"/>
</linearGradient>
<linearGradient id="paint2_linear_511_51532" x1="-18.5341" y1="48.6468" x2="22.4789" y2="14.4077" gradientUnits="userSpaceOnUse">
<stop stop-color="#FEFDFF"/>
<stop offset="1" stop-color="#1E9B1C"/>
</linearGradient>
<linearGradient id="paint3_linear_511_51532" x1="10" y1="10" x2="10" y2="23" gradientUnits="userSpaceOnUse">
<stop stop-color="#AFE3FF"/>
<stop offset="1" stop-color="#FEFDFF"/>
</linearGradient>
<linearGradient id="paint4_linear_511_51532" x1="24.1225" y1="26.3871" x2="24.1225" y2="11.8331" gradientUnits="userSpaceOnUse">
<stop stop-color="#4E9AD7"/>
<stop offset="1" stop-color="#2660AE"/>
</linearGradient>
<linearGradient id="paint5_linear_511_51532" x1="24" y1="0" x2="24" y2="23" gradientUnits="userSpaceOnUse">
<stop stop-color="#4278B6"/>
<stop offset="1" stop-color="#1F437F"/>
</linearGradient>
<linearGradient id="paint6_linear_511_51532" x1="14.4849" y1="12.6748" x2="18.3838" y2="20.1753" gradientUnits="userSpaceOnUse">
<stop stop-color="white" stop-opacity="0.01"/>
<stop offset="1" stop-color="white"/>
</linearGradient>
</defs>
</svg>
