<?xml version="1.0" encoding="UTF-8"?>
<svg width="24px" height="24px" viewBox="0 0 24 24" version="1.1" xmlns="http://www.w3.org/2000/svg" xmlns:xlink="http://www.w3.org/1999/xlink">
    <!-- <title>icon-设置</title> -->
    <g id="财政税收" stroke="none" stroke-width="1" fill="none" fill-rule="evenodd">
        <g id="画板" transform="translate(-1780.000000, -28.000000)" fill-rule="nonzero">
            <g id="icon-设置" transform="translate(1780.000000, 28.000000)">
                <rect id="矩形" fill="#000000" opacity="0" x="0" y="0" width="24" height="24"></rect>
                <path d="M12.2377274,15.6661033 C10.1669982,15.6661033 8.48776493,13.9868701 8.48776493,11.9161408 C8.48776493,9.84466155 10.1669982,8.16617833 12.2377274,8.16617833 C14.3084567,8.16617833 15.9876899,9.84466155 15.9876899,11.9161408 C15.9876899,13.9868701 14.3084567,15.6661033 12.2377274,15.6661033 M20.4741451,12.397636 C20.483145,12.2386376 20.4876449,12.0773892 20.4876449,11.9161408 C20.4876449,11.6063939 20.4703951,11.301147 20.4373955,11.00115 L22.8681211,9.31441684 C23.2018678,9.08266916 23.3128667,8.59892402 23.1066188,8.24117758 L20.8543913,4.3404666 C20.6503933,3.98722012 20.178648,3.83497164 19.8059018,4.01046988 L17.1299285,5.27195727 C16.6401834,4.91121088 16.1091887,4.60296398 15.5451944,4.35546644 L15.2999468,1.57599423 C15.2661972,1.17174827 14.9032008,1 14.4899549,1 L9.98549996,1 C9.57750404,1 9.21000772,1.16574834 9.17550807,1.57599423 L8.9302605,4.43871562 C8.32651655,4.70346297 7.7610222,4.99671004 7.24352738,5.39120608 L4.40480576,4.03221967 C4.03730944,3.85897141 3.56331418,3.99322007 3.35631626,4.35096648 L1.10408876,8.24642753 C0.900090825,8.60042399 1.00433977,9.08191916 1.34333637,9.31741682 L4.02080961,11.1743983 C3.99905982,11.4188958 3.98780993,11.6663933 3.98780993,11.9168908 C3.98780993,12.0781392 3.99230989,12.2378876 4.00130979,12.397636 L1.60733375,14.0596194 C1.27358708,14.2906171 1.1625882,14.7743623 1.36883614,15.1321087 L3.62106361,19.0328197 C3.82506158,19.3860661 4.29680684,19.5383146 4.66955311,19.3628164 L6.97953003,18.2738273 C7.56677415,18.7598224 8.22301758,19.1663183 8.9302605,19.4760652 L9.17550807,22.5900341 C9.20925772,22.99503 9.57225408,23.499775 9.98549996,23.499775 L14.4899549,23.499775 C14.8979508,23.499775 15.2654472,23.00028 15.2999468,22.5900341 L15.5451944,19.5593144 C16.2524373,19.2495675 16.9079307,18.801822 17.4951749,18.3158268 L19.8059018,19.3838162 C20.1733981,19.5570644 20.6473933,19.401066 20.8543913,19.0433196 L23.1066188,15.1373586 C23.3106167,14.7841122 23.2056177,14.296617 22.8673711,14.0618694 L20.4741451,12.397636 Z" id="形状" fill="#4FABF2"></path>
            </g>
        </g>
    </g>
</svg>